<?xml version="1.0" encoding="UTF-8"?>
<!DOCTYPE svg PUBLIC "-//W3C//DTD SVG 1.1//EN" "http://www.w3.org/Graphics/SVG/1.1/DTD/svg11.dtd">
<!-- Creator: CorelDRAW -->
<svg xmlns="http://www.w3.org/2000/svg" xml:space="preserve" width="10.5834mm" height="10.5834mm" version="1.1" style="shape-rendering:geometricPrecision; text-rendering:geometricPrecision; image-rendering:optimizeQuality; fill-rule:evenodd; clip-rule:evenodd"
viewBox="0 0 435.99 435.99"
 xmlns:xlink="http://www.w3.org/1999/xlink"
 xmlns:xodm="http://www.corel.com/coreldraw/odm/2003">
 <defs>
  <style type="text/css">
   <![CDATA[
    .fil0 {fill:#424188;fill-rule:nonzero}
   ]]>
  </style>
 </defs>
 <g id="Camada_x0020_1">
  <metadata id="CorelCorpID_0Corel-Layer"/>
  <g id="_2275273872000" filter="url(#filter0_i_224_670)">
   <path class="fil0" d="M217.99 0c-120.11,0 -217.99,97.88 -217.99,217.99 0,120.11 97.88,217.99 217.99,217.99 120.11,0 217.99,-97.88 217.99,-217.99 0,-120.11 -97.88,-217.99 -217.99,-217.99zm87.2 234.34l-70.85 0 0 70.85c0,8.94 -7.41,16.35 -16.35,16.35 -8.94,0 -16.35,-7.41 -16.35,-16.35l0 -70.85 -70.85 0c-8.94,0 -16.35,-7.41 -16.35,-16.35 0,-8.94 7.41,-16.35 16.35,-16.35l70.85 0 0 -70.85c0,-8.94 7.41,-16.35 16.35,-16.35 8.94,0 16.35,7.41 16.35,16.35l0 70.85 70.85 0c8.94,0 16.35,7.41 16.35,16.35 0,8.94 -7.41,16.35 -16.35,16.35z"/>
  </g>
 </g>
</svg>
