<?xml version="1.0" encoding="UTF-8"?>
<!DOCTYPE svg PUBLIC "-//W3C//DTD SVG 1.1//EN" "http://www.w3.org/Graphics/SVG/1.1/DTD/svg11.dtd">
<!-- Creator: CorelDRAW -->
<svg xmlns="http://www.w3.org/2000/svg" xml:space="preserve" width="5.9267mm" height="6.7731mm" version="1.1" style="shape-rendering:geometricPrecision; text-rendering:geometricPrecision; image-rendering:optimizeQuality; fill-rule:evenodd; clip-rule:evenodd"
viewBox="0 0 78.6 89.82"
 xmlns:xlink="http://www.w3.org/1999/xlink"
 xmlns:xodm="http://www.corel.com/coreldraw/odm/2003">
 <defs>
  <style type="text/css">
   <![CDATA[
    .fil0 {fill:#B1B1B1;fill-rule:nonzero}
   ]]>
  </style>
 </defs>
 <g id="Camada_x0020_1">
  <metadata id="CorelCorpID_0Corel-Layer"/>
  <path class="fil0" d="M25.26 25.26l0 8.42 28.07 0 0 -8.42c0,-7.75 -6.28,-14.03 -14.03,-14.03 -7.75,0 -14.03,6.28 -14.03,14.03zm-11.23 8.42l0 -8.42c0,-13.95 11.32,-25.26 25.26,-25.26 13.95,0 25.26,11.31 25.26,25.26l0 8.42 2.81 0c6.19,0 11.23,5.03 11.23,11.23l0 33.68c0,6.19 -5.03,11.23 -11.23,11.23l-56.14 0c-6.19,0 -11.23,-5.04 -11.23,-11.23l-0 -33.68c0,-6.19 5.04,-11.23 11.23,-11.23l2.81 0z"/>
 </g>
</svg>
