<svg width="60" height="60" viewBox="0 0 60 60" fill="none" xmlns="http://www.w3.org/2000/svg">
<path d="M30 0C13.47 0 0 13.47 0 30C0 46.53 13.47 60 30 60C46.53 60 60 46.53 60 30C60 13.47 46.53 0 30 0ZM42 32.25H32.25V42C32.25 43.23 31.23 44.25 30 44.25C28.77 44.25 27.75 43.23 27.75 42V32.25H18C16.77 32.25 15.75 31.23 15.75 30C15.75 28.77 16.77 27.75 18 27.75H27.75V18C27.75 16.77 28.77 15.75 30 15.75C31.23 15.75 32.25 16.77 32.25 18V27.75H42C43.23 27.75 44.25 28.77 44.25 30C44.25 31.23 43.23 32.25 42 32.25Z" fill="#194D97"/>
</svg>
