<svg width="48" height="48" viewBox="0 0 48 48" fill="none" xmlns="http://www.w3.org/2000/svg">
<g filter="url(#filter0_d_171_840)">
<path d="M24 0C18.5 0 14 5.6 14 12.5C14 19.4 18.5 25 24 25C29.5 25 34 19.4 34 12.5C34 5.6 29.5 0 24 0ZM13.55 25C8.25 25.25 4 29.6 4 35V40H44V35C44 29.6 39.8 25.25 34.45 25C31.75 28.05 28.05 30 24 30C19.95 30 16.25 28.05 13.55 25Z" fill="black"/>
</g>
<defs>
<filter id="filter0_d_171_840" x="0" y="0" width="48" height="48" filterUnits="userSpaceOnUse" color-interpolation-filters="sRGB">
<feFlood flood-opacity="0" result="BackgroundImageFix"/>
<feColorMatrix in="SourceAlpha" type="matrix" values="0 0 0 0 0 0 0 0 0 0 0 0 0 0 0 0 0 0 127 0" result="hardAlpha"/>
<feOffset dy="4"/>
<feGaussianBlur stdDeviation="2"/>
<feComposite in2="hardAlpha" operator="out"/>
<feColorMatrix type="matrix" values="0 0 0 0 0 0 0 0 0 0 0 0 0 0 0 0 0 0 0.25 0"/>
<feBlend mode="normal" in2="BackgroundImageFix" result="effect1_dropShadow_171_840"/>
<feBlend mode="normal" in="SourceGraphic" in2="effect1_dropShadow_171_840" result="shape"/>
</filter>
</defs>
</svg>
